PathFileType	4	(X/Y/Z)	C:/Users/beibeiliu/ov580/test_trc/capture2\sequence.29_training_dense_left.trc
DataRate	CameraRate	NumFrames	NumMarkers	Units	OrigDataRate	OrigDataStartFrame	OrigNumFrames
120	120	18	19	mm	120	213	340
Frame#	Time	ThumbCMC			ThumbMCP			ThumbIP			ThumbTip			IndexMCP			IndexPIP			IndexTip			MiddleMCP			MiddlePIP			MiddleTip			RingMCP			RingPIP			RingTip			PinkyMCP			PinkyPIP			PinkyTip			BackHand1			BackHand2			BackHand3	
		X0	Y0	Z0	X1	Y1	Z1	X2	Y2	Z2	X3	Y3	Z3	X4	Y4	Z4	X5	Y5	Z5	X6	Y6	Z6	X7	Y7	Z7	X8	Y8	Z8	X9	Y9	Z9	X10	Y10	Z10	X11	Y11	Z11	X12	Y12	Z12	X13	Y13	Z13	X14	Y14	Z14	X15	Y15	Z15	X16	Y16	Z16	X17	Y17	Z17	X18	Y18	Z18	
212	1.76667	-120.289	41.2437	35.3824	-103.654	40.0358	5.70539	-113.208	51.6147	-23.7511	-139.643	50.2558	-30.384	-104.19	77.2561	-25.2443	-93.052	54.3993	-40.5719	-103.228	31.9883	-15.43	-119.624	74.6177	-33.8069	-111.373	47.271	-52.3972	-113.7	19.9173	-27.052	-137.433	65.6532	-44.093	-123.775	36.1339	-48.0371	-128.956	22.5044	-21.7671	-154.329	51.1481	-39.8602	-141.862	23.6895	-33.7068	-150.035	24.2593	-3.32003	-171.066	70.305	4.22949	-182.942	57.2363	30.3618	-148.757	68.397	29.2975	
213	1.775	-126.14	40.8072	35.0898	-103.682	41.0387	5.49221	-113.199	52.2739	-21.4852	-142.358	52.236	-32.7422	-105.499	75.0656	-28.9839	-93.1067	51.9101	-41.6711	-104.862	26.8242	-24.5463	-120.268	71.7988	-40.7926	-110.224	47.7955	-52.7847	-117.616	19.2074	-29.4732	-139.906	64.3671	-45.5712	-125.144	35.7648	-50.2167	-127.759	22.4159	-21.7148	-153.104	48.3482	-41.1241	-140.687	23.5143	-31.7132	-148.773	24.8965	0.832946	-171.766	70.3979	2.42509	-182.37	56.1879	28.1487	-147.203	67.9175	32.5485	
214	1.78333	-124.071	41.9666	34.1022	-106.129	43.0967	4.08826	-111.768	51.0359	-23.391	-135.374	49.1444	-33.1324	-104.637	72.6258	-30.205	-96.6375	47.6856	-43.6488	-103.496	21.5826	-22.7135	-122.809	71.2486	-39.5672	-107.872	41.9431	-51.5809	-114.46	18.1045	-25.9021	-141.993	61.2816	-47.528	-128.699	34.0574	-53.5711	-131.986	21.2308	-20.3122	-155.158	46.4184	-43.5089	-142.848	20.0782	-32.3015	-149.501	24.0326	0.457154	-169.454	72.3744	1.11147	-179.741	57.1689	28.0746	-149.292	70.5917	29.1578	
215	1.79167	-123.578	41.0082	30.3032	-105.106	39.5144	4.14461	-108.177	46.975	-24.3125	-129.719	47.7129	-36.8992	-108.29	70.3945	-28.7705	-97.6596	46.5192	-46.994	-104.775	19.5846	-30.1247	-124.06	67.9194	-44.7635	-111.954	43.6805	-56.0833	-116.509	14.9751	-28.1815	-138.645	60.0111	-50.7843	-132.043	31.5085	-55.4444	-130.022	18.6004	-24.6034	-156.89	45.3343	-47.1998	-144.234	20.7294	-40.0545	-145.938	19.6005	-5.21394	-169.619	69.4083	0.503963	-177.979	59.0474	31.0555	-145.218	71.0196	26.5393	
216	1.8	-123.215	37.2791	32.6304	-104.676	36.6762	1.35064	-103.652	42.3949	-24.44	-126.599	47.2121	-41.5603	-106.091	69.9571	-31.7289	-97.1339	43.6391	-51.0882	-102.448	16.8748	-37.6443	-121.645	69.8188	-42.1425	-110.881	41.7907	-60.5386	-118.89	13.576	-37.4094	-141.932	61.6369	-47.7231	-132.277	32.6683	-58.9024	-129.482	15.8026	-29.5164	-156.425	50.6365	-47.4106	-145.482	24.355	-49.7824	-141.093	14.4504	-17.3534	-164.723	71.2654	2.4364	-177.797	58.5715	26.9407	-143.759	68.0694	26.0098	
217	1.80833	-116.22	37.9602	28.4231	-101.576	32.9955	0.364162	-99.298	35.9364	-23.8617	-117.284	41.7401	-44.3276	-104.077	69.976	-34.7489	-96.754	52.1799	-56.3506	-97.6687	18.9759	-49.3028	-121.587	69.2337	-49.1365	-111.976	45.7755	-65.9815	-115.011	12.1913	-50.6594	-141.641	61.6579	-52.6992	-134.724	36.6945	-66.6937	-126.17	12.4785	-40.8803	-161.114	52.7427	-47.0167	-150.413	27.9643	-60.9923	-138.735	10.6385	-33.6338	-163.774	70.0903	1.69411	-175.376	56.6567	28.1795	-142.129	66.8191	24.295	
218	1.81667	-116.036	37.3881	26.3523	-99.6564	28.4625	2.44053	-95.5595	32.1893	-25.7736	-107.22	34.8823	-49.7785	-105.725	70.8301	-35.5605	-96.1179	57.253	-60.2504	-93.9344	24.0032	-63.8614	-124.905	70.2108	-51.2571	-115.972	49.93	-71.3645	-113.43	12.5265	-63.1486	-146.077	63.2612	-52.1306	-132.752	41.1137	-73.2083	-126.998	13.1993	-61.5615	-167.032	54.019	-47.8643	-150.241	36.5323	-68.7217	-135.128	10.0629	-57.7241	-164.238	67.6088	0.473885	-175.836	58.5988	25.759	-142.603	66.9565	24.4852	
219	1.825	-116.399	35.4189	26.1663	-96.8826	24.5127	3.37125	-91.0637	27.0026	-27.5797	-99.3451	26.1018	-47.6474	-105.956	70.2043	-36.0877	-96.826	60.1166	-63.7985	-91.8014	27.2533	-75.0149	-126.215	68.2179	-49.8845	-118.787	51.6718	-75.9642	-114.271	15.186	-76.4717	-146.305	62.725	-56.7596	-136.215	47.3245	-76.3697	-126.131	13.847	-77.0512	-165.787	54.0104	-47.927	-161.772	41.8941	-73.7246	-142.723	19.3978	-79.4606	-164.397	63.9127	-2.05454	-172.805	58.8454	25.9731	-141.108	65.1452	19.4358	
220	1.83333	-114.741	33.8061	28.5282	-96.6437	22.1152	5.85446	-85.1857	19.8103	-19.991	-93.6709	21.3591	-46.3	-108.314	68.2389	-36.8306	-95.9894	59.6338	-64.9765	-91.1604	36.3059	-80.3942	-125.822	67.0246	-47.8313	-116.532	52.0158	-76.68	-111.802	14.9639	-80.7348	-149.211	62.5754	-56.0562	-143.132	47.3971	-79.0319	-130.422	19.3233	-85.1394	-171.945	54.2123	-50.7174	-167.286	46.5963	-73.5445	-149.875	26.553	-90.6913	-166.982	62.0058	-3.64575	-170.422	56.0326	24.7043	-138.347	63.933	19.6573	
221	1.84167	-114.234	32.1613	30.7554	-95.9123	19.8403	6.9365	-84.0678	17.7124	-18.97	-86.2385	17.0835	-43.8458	-111.916	67.1313	-35.0678	-101.063	62.0686	-62.9762	-96.3513	34.6795	-79.7282	-126.93	67.3789	-48.065	-122.048	50.173	-77.2166	-117.266	12.8836	-78.726	-148.588	62.4682	-51.3154	-143.631	48.1099	-78.1368	-133.454	16.7996	-85.4552	-170.463	54.8402	-46.6064	-170.899	48.8566	-72.0322	-159.886	30.5015	-94.1406	-164.53	60.9532	-1.75596	-176.404	55.8299	30.5121	-137.122	62.957	20.6965	
222	1.85	-116.848	30.5298	30.2981	-97.5054	18.2193	7.46962	-83.3598	16.7473	-16.6547	-84.5313	15.619	-43.4325	-112.42	66.221	-32.1512	-102.731	60.6516	-61.5948	-100.532	30.7822	-74.0831	-130.028	65.8701	-44.9036	-122.196	47.5422	-75.1743	-122.297	10.6527	-69.5893	-149.34	63.5991	-50.2119	-145.377	49.1351	-76.3329	-137.996	16.3789	-78.2433	-173.788	52.745	-39.8919	-171.838	48.6519	-72.5586	-158.822	27.1269	-90.067	-167.878	60.2713	-0.449219	-173.808	53.8641	30.0326	-142.786	59.2507	23.7386	
223	1.85833	-116.416	29.1168	30.8788	-101.549	15.0536	11.6757	-89.3297	15.5572	-13.2073	-82.7769	14.6937	-39.4966	-113.128	65.3113	-33.7675	-107.644	55.4685	-62.6616	-108.484	21.0658	-63.5174	-133.028	65.0972	-47.6412	-123.125	47.2525	-72.4878	-123.279	10.5779	-57.1576	-149.366	63.944	-47.4817	-143.502	45.096	-73.697	-137.873	16.6314	-65.1391	-171.38	57.913	-42.6629	-165.445	49.7672	-69.2532	-152.397	20.6005	-75.2104	-164.944	62.1123	2.39043	-177.674	56.3862	28.0401	-142.964	57.8224	23.0842	
224	1.86667	-118.788	27.6389	29.1736	-103.926	17.3432	5.562	-85.9619	13.0689	-14.0392	-84.1931	15.5	-40.5202	-111.43	65.0108	-34.568	-106.604	48.2155	-61.3024	-108.895	17.1387	-49.4983	-130.79	65.6149	-48.6211	-125.871	40.9681	-69.405	-125.049	13.8915	-43.8679	-150.904	62.4925	-45.9565	-144.273	39.9056	-70.5008	-139.517	15.8351	-49.592	-172.084	58.8232	-43.8606	-163.453	42.2477	-67.6237	-148.784	14.4317	-52.4454	-168.619	62.2453	4.08158	-176.567	56.0106	32.2148	-139.136	59.4155	24.3899	
225	1.875	-117.253	27.2669	30.0845	-100.723	15.9558	7.54314	-92.9618	16.1569	-14.5879	-88.0488	20.6713	-45.3032	-110.723	65.0375	-37.0202	-103.114	43.2998	-56.756	-115.133	18.5153	-41.4006	-128.054	65.5064	-43.0281	-126.675	39.5413	-64.3453	-128.76	18.262	-34.7746	-148.707	61.612	-51.5157	-138.877	35.3557	-62.5614	-142.823	17.5843	-35.8341	-164.512	55.0628	-45.4509	-157.271	31.7949	-58.6772	-152.486	13.5213	-30.1983	-167.425	65.4878	5.97547	-176.104	53.0076	34.0282	-139.926	58.7585	26.5503	
226	1.88333	-117.019	27.8316	29.13	-105.727	17.7397	3.89946	-89.3297	17.7113	-21.1202	-91.511	23.9748	-47.3456	-108.85	63.2887	-32.8459	-104.157	39.5076	-52.5859	-114.813	18.2388	-30.6501	-125.917	62.6827	-43.9692	-124.356	32.0697	-56.0556	-130.109	20.7178	-22.4303	-143.255	56.8487	-48.7844	-141.973	28.0728	-54.1438	-142.853	21.2385	-20.1339	-164.237	50.126	-47.3119	-157.743	21.6676	-47.0614	-152.987	18.7913	-17.0863	-168.582	67.8183	2.83381	-173.542	55.711	33.1041	-142.621	59.6512	29.1488	
227	1.89167	-121.198	27.8219	30.2922	-105.961	19.1235	5.22492	-93.9434	19.6226	-19.3894	-94.0305	25.6091	-45.3928	-106.943	61.2482	-30.2412	-101.368	35.919	-47.7582	-116.298	19.8432	-19.1604	-123.048	58.9253	-41.6667	-121.856	26.4732	-48.7255	-130.983	20.0233	-13.7602	-144.304	51.3076	-49.0166	-139.117	21.3131	-44.0542	-145.718	22.7244	-9.66056	-161.809	47.2454	-40.5692	-157.316	18.7298	-38.2296	-158.772	19.6562	-4.13802	-163.293	70.999	4.74861	-175.748	55.2073	32.4201	-138.014	62.8656	29.7872	
228	1.9	-120.127	29.0364	31.7767	-106.348	18.0482	7.89636	-93.9626	18.7712	-17.3168	-90.0968	24.6074	-45.2677	-106.073	57.9319	-32.6707	-103.569	31.6968	-43.5037	-117.59	19.5998	-12.4091	-123.457	55.8485	-41.3701	-123.832	24.2872	-44.3957	-133.705	19.9153	-11.3366	-146.595	49.758	-43.3534	-138.718	18.9638	-37.2202	-144.587	20.5777	-6.7154	-162.879	43.6512	-39.7047	-156.272	15.0445	-25.8414	-155.815	27.843	2.48882	-166.613	70.008	4.37688	-174.93	57.308	33.4409	-139.915	61.6621	31.8324	
229	1.90833	-121.485	29.5014	30.6695	-105.831	16.7016	8.13018	-93.857	17.854	-17.0836	-93.8602	25.3181	-47.0791	-102.258	57.6397	-27.9488	-101.663	29.1415	-40.321	-118.67	19.7088	-13.5728	-122.992	55.5696	-37.206	-121.087	20.4495	-40.211	-134.358	18.1685	-8.67932	-143.199	45.3747	-43.7555	-142.079	15.9169	-33.1768	-148.538	24.4604	0.398805	-158.971	37.8727	-39.1285	-156.27	15.3165	-25.4249	-160.008	27.0088	8.14715	-165.073	67.4106	4.78465	-178.585	55.9355	32.4416	-143.004	63.216	27.3249	
